<?xml version="1.0" encoding="iso-8859-1"?>
<!-- Generator: Adobe Illustrator 19.0.0, SVG Export Plug-In . SVG Version: 6.00 Build 0)  -->
<svg version="1.1" id="Capa_1" xmlns="http://www.w3.org/2000/svg" xmlns:xlink="http://www.w3.org/1999/xlink" x="0px" y="0px"
	 viewBox="0 0 512.003 512.003" style="enable-background:new 0 0 512.003 512.003;" xml:space="preserve">
<g>
	<g>
		<g>
			<path d="M102.402,187.737h136.533c8.948,0.012,17.239-4.694,21.815-12.383c2.47,1.407,4.996,2.739,7.614,3.933
				c34.539,15.761,75.171,9.164,102.95-16.715c27.778-25.879,37.233-65.943,23.954-101.51
				c-13.277-35.568-46.673-59.635-84.614-60.979c-37.941-1.344-72.956,20.301-88.715,54.841c-1.934,4.322-3.542,8.784-4.809,13.346
				H102.402c-14.111,0.066-25.534,11.489-25.6,25.6c0.019,6.332,2.402,12.428,6.682,17.095c-4.296,4.634-6.682,10.72-6.682,17.039
				c0.019,6.332,2.402,12.428,6.682,17.095c-4.296,4.634-6.682,10.72-6.682,17.039C76.818,176.269,88.27,187.721,102.402,187.737z
				 M237.465,62.007c12.422-27.468,39.837-45.062,69.983-44.912c34.07,0.052,64.033,22.542,73.596,55.242
				s-3.559,67.792-32.232,86.193c-28.673,18.401-66.041,15.713-91.785-6.603C231.283,129.61,223.319,93.002,237.465,62.007z
				 M96.477,87.795c1.558-1.592,3.698-2.479,5.925-2.458H213.92c-0.53,5.676-0.534,11.39-0.012,17.067H102.402
				c-4.71-0.006-8.527-3.823-8.533-8.533C93.862,91.572,94.806,89.373,96.477,87.795z M96.477,121.928
				c1.558-1.592,3.698-2.479,5.925-2.458h114.681c0.693,2.43,1.418,4.856,2.311,7.25c1.271,3.352,2.73,6.629,4.37,9.817H102.402
				c-4.71-0.006-8.527-3.823-8.533-8.533C93.862,125.705,94.806,123.506,96.477,121.928z M96.477,156.062
				c1.558-1.592,3.698-2.479,5.925-2.458h132.579c3.546,4.32,7.477,8.309,11.743,11.92c-0.445,1.006-1.078,1.919-1.864,2.689
				c-1.558,1.592-3.698,2.479-5.925,2.458H102.402c-4.71-0.006-8.527-3.823-8.533-8.533
				C93.862,159.838,94.806,157.64,96.477,156.062z"/>
			<path d="M505.661,0.291c-3.738-1.002-7.681,0.645-9.596,4.008L367.673,228.632l-19.875,37.279
				c-1.951,3.689-6.29,5.415-10.242,4.075l-150.9-50.6c-11.753-3.956-24.651,1.092-30.596,11.975l-27.154,49.604l-6.763,11.552
				c-1.042,1.033-1.796,2.32-2.186,3.735L1.173,499.158c-1.547,2.639-1.563,5.903-0.042,8.557c1.521,2.654,4.346,4.29,7.405,4.289
				h494.933c4.713,0,8.533-3.821,8.533-8.533V8.537C512.003,4.668,509.4,1.283,505.661,0.291z M119.469,494.937h-96.05
				l96.05-164.077V494.937z M247.469,494.937H136.535V301.706l7.217-12.328l27.275-49.817c1.973-3.638,6.282-5.324,10.2-3.992
				l66.242,22.211V494.937z M375.469,494.937H264.535V263.504l67.596,22.666c11.856,4.007,24.868-1.174,30.725-12.233l12.612-23.663
				V494.937z M494.936,494.937h-102.4V219.535l102.4-178.91V494.937z"/>
			<path d="M279.451,134.437l-1.136,2.491c-1.265,2.773-0.955,6.011,0.814,8.493s4.728,3.833,7.763,3.542
				c3.034-0.291,5.683-2.178,6.948-4.952l1.091-2.389c2.637,0.583,5.329,0.881,8.03,0.89c2.836,0.007,5.661-0.338,8.413-1.025
				c8.171-1.708,15.043-7.201,18.508-14.795c3.465-7.594,3.111-16.385-0.954-23.676c-2.571-4.906-6.237-9.153-10.715-12.412
				l9.626-21.092c1.13,1.174,2.093,2.499,2.86,3.937c1.536,2.718,1.779,5.98,0.662,8.896c-1.271,2.774-0.963,6.016,0.806,8.502
				s4.732,3.837,7.769,3.545c3.037-0.293,5.687-2.185,6.95-4.963c3.308-7.626,2.956-16.344-0.954-23.679
				c-2.57-4.905-6.236-9.151-10.714-12.409l1.135-2.487c1.942-4.284,0.049-9.332-4.23-11.284c-4.279-1.952-9.332-0.073-11.295,4.201
				l-1.132,2.481c-5.397-1.251-11.011-1.236-16.401,0.044c-8.105,1.85-14.922,7.298-18.513,14.796
				c-3.308,7.625-2.956,16.342,0.954,23.675c2.571,4.907,6.239,9.155,10.718,12.415l-9.634,21.11
				c-3.63-3.2-5.011-8.252-3.514-12.854c1.265-2.775,0.954-6.014-0.816-8.497c-1.77-2.483-4.731-3.833-7.767-3.542
				c-3.036,0.292-5.685,2.181-6.951,4.955C262.734,111.632,267.588,126.629,279.451,134.437z M313.694,110.711
				c1.536,2.718,1.779,5.98,0.663,8.896c-1.468,2.755-4.09,4.71-7.15,5.329c-1.591,0.364-3.225,0.506-4.855,0.422l8.481-18.583
				C311.963,107.949,312.926,109.274,313.694,110.711L313.694,110.711z M300.306,68.174c1.471-2.754,4.094-4.708,7.154-5.329
				c1.591-0.366,3.224-0.508,4.854-0.421l-8.482,18.586c-1.131-1.175-2.095-2.501-2.864-3.939
				C299.433,74.352,299.19,71.09,300.306,68.174z"/>
		</g>
	</g>
</g>
<g>
</g>
<g>
</g>
<g>
</g>
<g>
</g>
<g>
</g>
<g>
</g>
<g>
</g>
<g>
</g>
<g>
</g>
<g>
</g>
<g>
</g>
<g>
</g>
<g>
</g>
<g>
</g>
<g>
</g>
</svg>
